# xmcd CD database file
#
# Track frame offsets:
#	180
#	22013
#	40975
#	59035
#	81330
#	102747
#	122401
#	144331
#	165671
#	186387
#	207221
#	228777
#
# Disc length: 3289 seconds
#
# Revision: 0
# Processed by: cddbd v1.4PL0 Copyright (c) Steve Scherf et al.
# Submitted via: CDex 1.50Beta7
#
DISCID=a90cd70c
DTITLE=Los Titatnes - Greatest Hits - Grandes Exitos
DYEAR=2000
DGENRE=Salsa
TTITLE0=Por Retenerte
TTITLE1=Sobredosis
TTITLE2=En Trance
TTITLE3=Noche a Noche
TTITLE4=Loca pasion
TTITLE5=Zodiaco
TTITLE6=Basto una Mirada
TTITLE7=Tu la Pagaras
TTITLE8=No Me Vuelvo
TTITLE9=Desnuda
TTITLE10=Dame una Oportunidad
TTITLE11=Aguacero de Tormentos
EXTD=YEAR: 2000
EXTT0=
EXTT1=
EXTT2=
EXTT3=
EXTT4=
EXTT5=
EXTT6=
EXTT7=
EXTT8=
EXTT9=
EXTT10=
EXTT11=
PLAYORDER=
